<svg xmlns="http://www.w3.org/2000/svg" version="1.0" preserveAspectRatio="xMidYMid meet" viewBox="10 8.96 108.01 106.04">
<g transform="translate(0.000000,122.000000) scale(0.100000,-0.100000)" fill="rgb(12, 95, 133)" stroke="none">
<path d="M120 1110 c-19 -19 -20 -33 -20 -508 0 -425 2 -490 16 -510 14 -21 22 -22 140 -22 l125 0 -52 42 c-77 63 -78 67 -33 114 22 23 58 58 82 79 l43 38 27 -25 c117 -110 308 -53 341 102 7 31 11 179 11 380 l0 330 -330 0 c-317 0 -331 -1 -350 -20z"/>
<path d="M1030 772 c0 -397 -4 -433 -63 -530 -30 -50 -109 -132 -152 -159 -16 -9 17 -12 162 -12 170 -1 183 0 193 18 6 13 10 191 10 508 0 567 6 533 -91 533 l-59 0 0 -358z"/>
</g>
</svg>