<svg xmlns="http://www.w3.org/2000/svg" version="1.0" preserveAspectRatio="xMidYMid meet" viewBox="7 9.96 712 108.04">

<g transform="translate(0.000000,127.000000) scale(0.100000,-0.100000)" fill="rgb(12, 95, 133)" stroke="none">
<path d="M90 1150 c-19 -19 -20 -33 -20 -508 0 -425 2 -490 16 -510 14 -21 22 -22 140 -22 l125 0 -52 42 c-77 63 -78 67 -33 114 22 23 58 58 82 79 l43 38 27 -25 c117 -110 308 -53 341 102 7 31 11 179 11 380 l0 330 -330 0 c-317 0 -331 -1 -350 -20z"/>
<path d="M1000 812 c0 -397 -4 -433 -63 -530 -30 -50 -109 -132 -152 -159 -16 -9 17 -12 162 -12 170 -1 183 0 193 18 6 13 10 191 10 508 0 567 6 533 -91 533 l-59 0 0 -358z"/>
<path d="M2220 640 l0 -530 105 0 105 0 0 33 c0 43 9 52 27 27 26 -37 112 -73 188 -78 206 -13 345 149 345 403 -1 267 -139 431 -346 412 -77 -7 -129 -28 -171 -69 l-33 -32 0 182 0 182 -110 0 -110 0 0 -530z m468 83 c42 -30 71 -98 78 -183 15 -179 -51 -292 -171 -292 -106 0 -165 90 -165 251 0 126 35 206 104 237 41 19 120 12 154 -13z"/>
<path d="M3160 640 l0 -530 115 0 115 0 0 215 0 215 245 0 245 0 0 95 0 95 -242 2 -243 3 0 120 0 120 273 3 272 2 0 95 0 95 -390 0 -390 0 0 -530z"/>
<path d="M4090 640 l0 -530 110 0 110 0 0 530 0 530 -110 0 -110 0 0 -530z"/>
<path d="M1570 892 c-183 -50 -280 -204 -267 -426 7 -126 34 -195 106 -267 160 -159 463 -141 590 36 114 159 97 438 -34 570 -90 89 -254 126 -395 87z m208 -158 c97 -71 112 -355 23 -445 -87 -87 -238 -39 -270 85 -16 63 -14 203 4 262 14 47 46 87 90 113 29 17 121 8 153 -15z"/>
<path d="M4745 900 c-200 -43 -305 -197 -292 -430 6 -116 31 -189 88 -254 74 -83 174 -126 299 -126 257 0 419 205 380 480 -29 205 -156 325 -351 335 -46 2 -102 0 -124 -5z m183 -166 c97 -71 112 -355 23 -445 -87 -87 -238 -39 -270 85 -16 63 -14 203 4 262 14 47 46 87 90 113 29 17 121 8 153 -15z"/>
<path d="M7042 887 c-47 -17 -101 -64 -119 -103 -9 -19 -20 -34 -25 -34 -4 0 -8 32 -8 70 l0 70 -100 0 -100 0 0 -390 0 -390 110 0 110 0 0 170 c0 222 19 309 82 367 35 33 108 63 156 63 l42 0 0 95 0 95 -57 -1 c-32 0 -73 -6 -91 -12z"/>
<path d="M5386 498 l101 -393 154 0 154 0 64 254 c46 180 67 248 73 235 7 -17 128 -470 128 -480 0 -2 69 -4 154 -4 l155 0 15 52 c31 112 186 707 186 717 0 7 -39 11 -114 11 l-114 0 -20 -87 c-11 -49 -42 -188 -68 -310 -26 -122 -50 -220 -52 -218 -3 2 -42 141 -86 307 l-82 303 -105 3 -104 3 -79 -293 c-44 -161 -82 -299 -86 -307 -10 -19 -9 -23 -75 289 -31 146 -59 275 -62 288 -5 21 -9 22 -122 22 l-117 0 102 -392z"/>
</g>
</svg>